<?xml version="1.0" standalone="no"?>
<!DOCTYPE svg PUBLIC "-//W3C//DTD SVG 20010904//EN"
 "http://www.w3.org/TR/2001/REC-SVG-20010904/DTD/svg10.dtd">
<svg version="1.0" xmlns="http://www.w3.org/2000/svg"
 width="512.000000pt" height="512.000000pt" viewBox="0 0 512.000000 512.000000"
 preserveAspectRatio="xMidYMid meet">
<metadata>
Created by potrace 1.14, written by Peter Selinger 2001-2017
</metadata>
<g transform="translate(0.000000,512.000000) scale(0.100000,-0.100000)"
fill="#000000" stroke="none">
<path d="M2560 4339 c-13 -6 -32 -17 -42 -26 -12 -10 -26 -13 -45 -8 -15 3
-55 1 -90 -6 -56 -11 -67 -11 -99 5 -50 23 -85 14 -145 -40 -46 -41 -53 -44
-87 -38 -20 4 -46 7 -57 6 -23 -1 -55 -37 -55 -62 0 -9 -5 -31 -11 -48 -11
-31 -11 -31 -68 -26 -59 7 -110 -9 -128 -40 -4 -7 -32 -19 -62 -26 -76 -18
-115 -55 -117 -112 -1 -33 -10 -57 -33 -88 -46 -63 -57 -107 -37 -153 8 -20
26 -42 40 -48 32 -15 42 -68 26 -144 -7 -35 -9 -88 -5 -138 6 -76 4 -89 -25
-172 -34 -94 -90 -208 -141 -287 -75 -114 -10 -228 124 -215 l49 4 -6 -61 c-7
-74 7 -101 59 -110 l36 -7 -21 -26 c-27 -34 -25 -65 5 -93 25 -23 25 -24 6
-44 -28 -30 -36 -92 -18 -145 9 -24 13 -49 11 -56 -7 -18 22 -72 46 -85 11 -6
27 -22 36 -35 16 -24 15 -26 -25 -70 -29 -32 -41 -53 -41 -75 0 -44 23 -92 58
-122 17 -14 28 -28 25 -31 -3 -3 -27 -3 -54 0 -44 5 -49 4 -49 -14 0 -11 7
-27 16 -34 12 -10 14 -23 10 -50 -10 -61 33 -88 83 -53 21 15 25 15 57 -2 30
-17 36 -17 44 -4 5 8 10 29 10 47 0 44 12 48 57 17 42 -28 42 -32 12 -73 -24
-33 -22 -69 4 -85 14 -9 21 -7 31 7 7 9 24 17 37 17 13 0 39 15 60 36 l36 35
6 -122 c3 -68 14 -156 23 -196 l17 -72 -35 -78 c-49 -106 -68 -169 -71 -234
l-2 -54 65 -17 c75 -19 187 -22 280 -7 103 16 202 54 385 145 170 84 221 101
368 123 232 36 462 147 527 254 33 53 26 76 -56 188 -171 235 -197 349 -173
766 l12 226 48 53 c42 46 49 62 64 131 9 43 30 123 46 178 17 55 38 125 47
155 11 36 29 68 54 93 39 39 46 64 27 99 -9 16 -5 32 16 80 34 75 29 112 -21
158 -33 29 -36 36 -29 69 4 20 9 48 12 62 3 15 0 53 -7 84 -16 75 -44 105
-100 105 -26 0 -52 8 -73 22 -18 13 -33 23 -35 24 -1 0 5 17 13 37 25 60 19
97 -22 148 -21 25 -53 67 -70 93 -45 64 -72 75 -132 52 -81 -31 -77 -32 -89
16 -15 58 -65 126 -106 143 -19 8 -49 11 -73 8 -23 -3 -54 -1 -70 4 -21 8 -41
6 -76 -5 -43 -14 -49 -13 -65 1 -52 47 -162 70 -222 46z m165 -47 c17 -8 41
-23 54 -33 13 -11 31 -19 41 -19 9 0 27 -11 39 -24 31 -32 26 -82 -11 -109
-27 -20 -28 -20 -86 -3 -62 19 -93 19 -99 -1 -3 -9 4 -11 24 -7 17 3 45 -1 67
-10 66 -28 108 -18 134 31 17 31 15 85 -4 112 -24 33 -6 48 41 34 24 -8 47 -8
70 -2 72 20 139 -50 155 -163 13 -87 17 -98 57 -135 18 -18 36 -46 39 -63 9
-43 24 -48 24 -6 0 23 -9 45 -26 65 l-26 31 44 20 c45 20 138 27 138 10 0 -5
-6 -10 -14 -10 -26 0 -46 -42 -46 -95 0 -30 -6 -60 -16 -73 -21 -30 -13 -38
11 -12 13 14 20 41 23 83 4 70 21 93 55 76 17 -10 19 -19 15 -78 -3 -37 -15
-89 -28 -119 -21 -48 -29 -56 -84 -84 -82 -41 -143 -98 -103 -98 7 0 18 9 25
21 7 12 47 36 88 56 64 29 82 33 119 27 55 -8 51 -19 -10 -27 -50 -7 -121 -34
-113 -43 4 -3 36 4 73 15 110 34 192 24 220 -28 13 -24 14 -24 15 -5 0 23 -18
43 -59 61 l-26 11 26 1 c36 1 76 -32 81 -69 6 -40 -5 -58 -26 -41 -10 9 -16 9
-16 3 0 -6 9 -16 20 -22 11 -6 20 -16 20 -22 0 -6 -6 -5 -16 3 -21 18 -84 39
-84 28 0 -4 9 -10 19 -14 38 -12 71 -46 71 -73 l0 -27 -20 33 c-11 17 -24 32
-30 32 -16 0 -12 -10 15 -42 14 -16 25 -38 25 -47 0 -10 9 -30 20 -44 l21 -26
-63 28 c-51 23 -65 34 -73 60 -5 17 -13 31 -17 31 -13 0 -9 -20 8 -50 16 -26
109 -80 139 -80 22 0 28 -44 14 -100 -12 -47 -14 -49 -31 -33 -24 22 -23 7 2
-24 23 -29 25 -46 9 -74 -10 -19 -11 -19 -40 5 -51 43 -149 57 -149 21 0 -9
11 -12 38 -8 40 5 87 -12 111 -40 9 -12 8 -23 -8 -53 -11 -22 -27 -72 -36
-112 l-17 -74 -24 36 c-14 20 -30 36 -36 36 -7 0 -5 -7 4 -17 38 -43 54 -113
27 -113 -5 0 -31 20 -57 44 -48 44 -90 71 -98 63 -3 -3 10 -15 28 -28 18 -12
53 -41 78 -63 45 -41 53 -68 29 -106 -7 -11 -8 -9 -4 8 4 14 2 22 -7 22 -7 0
-25 20 -40 45 -14 24 -44 55 -65 68 -21 13 -57 43 -80 67 -24 23 -43 37 -43
30 0 -7 19 -30 42 -52 39 -36 40 -38 16 -38 -28 0 -47 18 -72 68 -9 18 -21 30
-26 27 -11 -7 20 -74 45 -99 9 -9 33 -16 53 -16 68 0 132 -64 132 -130 0 -23
-2 -23 -87 -17 -83 5 -248 39 -262 52 -3 4 20 5 51 3 66 -3 79 13 21 26 -60
14 -121 44 -133 65 -9 18 -15 101 -6 101 2 0 20 -7 39 -15 26 -11 43 -12 61
-5 24 9 46 37 46 59 0 21 -21 11 -30 -14 -7 -17 -17 -25 -34 -25 -34 0 -86 46
-86 75 0 13 -12 61 -26 107 -30 98 -58 130 -136 152 -29 9 -66 22 -83 30 -16
8 -50 20 -75 28 -45 13 -45 13 -12 16 51 5 37 19 -27 27 -68 8 -93 2 -137 -31
-17 -13 -36 -24 -42 -24 -7 0 -12 -4 -12 -10 0 -18 33 -10 67 16 20 15 52 28
76 30 l42 4 -40 -15 c-22 -9 -44 -21 -50 -27 -7 -8 -5 -9 10 -3 33 13 92 18
109 8 15 -8 14 -11 -4 -31 -18 -19 -31 -22 -108 -22 -48 -1 -105 -7 -127 -15
-46 -17 -58 -7 -49 40 12 59 62 108 127 122 45 9 44 26 -1 21 -31 -2 -38 -1
-31 9 7 8 7 18 1 29 -6 11 -5 25 4 43 38 73 -14 134 -90 105 -31 -12 -16 -24
29 -24 44 0 45 -1 45 -33 0 -18 -11 -48 -24 -67 -65 -97 -156 -69 -191 58 -19
69 -39 91 -87 101 -27 5 -37 15 -56 54 -21 44 -25 47 -61 47 -21 0 -58 9 -82
20 -86 39 -157 20 -209 -56 -31 -46 -66 -72 -106 -80 -26 -5 -37 -1 -65 26
-23 21 -26 27 -9 16 13 -9 38 -16 55 -15 30 1 30 1 4 8 -34 11 -72 32 -66 37
2 2 20 -3 40 -11 43 -18 47 -18 47 -5 0 6 -8 10 -17 10 -10 0 -25 5 -33 11
-12 8 -10 9 7 4 16 -4 23 -1 28 14 3 11 14 22 23 24 15 3 14 5 -3 11 -11 4
-33 14 -50 21 -29 13 -28 14 40 16 39 2 88 2 110 1 l40 -2 -31 14 c-17 8 -34
23 -37 35 -7 27 -53 49 -69 33 -9 -9 -7 -12 9 -12 11 0 26 -6 32 -14 10 -12 6
-17 -26 -25 -55 -16 -69 -14 -97 12 -38 34 -41 60 -10 96 14 17 30 31 36 31 6
0 6 -6 -1 -14 -18 -21 -10 -70 12 -74 15 -3 16 0 6 22 -10 20 -9 30 5 51 23
35 45 32 115 -16 56 -40 62 -41 90 -29 17 7 31 16 31 21 0 12 -7 11 -30 -3
-16 -10 -24 -10 -38 -1 -9 7 -32 20 -49 29 -38 19 -41 36 -13 64 26 26 67 35
100 23 52 -20 74 1 99 94 13 47 34 59 75 43 43 -16 53 -13 111 40 30 28 62 50
71 50 8 0 33 -9 56 -21 37 -19 46 -20 82 -8 23 6 67 11 100 10 42 -1 64 3 76
14 40 36 122 40 185 7z m599 -188 c29 -11 17 -19 -32 -21 -45 -2 -46 -1 -22
12 29 16 33 17 54 9z m40 -40 c29 -11 17 -21 -28 -21 -24 -1 -62 -11 -84 -22
-51 -26 -54 -26 -50 1 2 12 14 28 28 35 26 13 107 17 134 7z m106 -172 c0 -19
-11 -49 -26 -72 -32 -49 -37 -50 -20 -7 8 17 17 56 21 86 8 58 25 53 25 -7z
m-1859 -89 c13 -16 12 -17 -3 -4 -10 7 -18 15 -18 17 0 8 8 3 21 -13z m4 -57
c6 -4 1 -4 -10 2 -11 6 -31 23 -45 39 l-25 28 35 -30 c19 -16 40 -34 45 -39z
m44 8 c14 -12 -19 -1 -35 12 -18 14 -18 14 6 3 14 -6 27 -13 29 -15z m342 -11
c37 -34 43 -36 71 -25 28 10 30 9 43 -22 18 -42 32 -54 75 -58 28 -2 38 -10
52 -38 l18 -34 -35 -36 c-45 -46 -46 -64 -1 -20 l35 33 17 -42 c13 -34 26 -47
62 -64 59 -29 70 -47 54 -90 -15 -41 -15 -87 -2 -122 7 -17 7 -24 0 -20 -6 3
-15 26 -21 51 -9 33 -19 49 -40 59 -15 8 -35 25 -43 37 -13 18 -16 19 -16 6 0
-9 12 -26 28 -37 46 -35 52 -41 52 -57 0 -13 -3 -13 -22 0 -13 7 -47 17 -77
20 -30 4 -67 14 -83 22 -47 25 -31 -3 24 -40 29 -20 76 -41 107 -47 31 -7 72
-24 91 -39 19 -14 56 -36 82 -49 55 -26 55 -29 -19 -119 -23 -30 -43 -58 -43
-64 0 -14 -79 -1 -108 18 -13 8 -29 13 -35 11 -16 -5 66 -47 92 -47 30 0 33
-14 15 -76 -17 -58 -9 -89 15 -60 8 10 23 13 45 9 20 -3 36 -1 40 6 5 7 -6 11
-33 11 -23 0 -41 4 -41 10 0 27 43 116 77 161 37 49 43 51 88 33 18 -7 18 -6
6 9 -7 9 -20 17 -28 17 -10 0 -13 6 -8 18 3 9 9 30 12 45 5 23 2 29 -16 34
-29 7 -27 33 3 33 19 0 83 -17 94 -25 1 -1 -5 -18 -13 -38 -8 -20 -15 -55 -15
-77 0 -31 -6 -47 -24 -63 l-23 -21 43 -35 c23 -20 54 -44 68 -54 14 -10 26
-23 26 -29 0 -20 -55 3 -90 38 -20 19 -42 34 -50 34 -8 -1 5 -19 30 -41 25
-23 36 -35 24 -28 -14 8 -26 9 -38 2 -14 -8 -12 -14 22 -51 21 -23 35 -42 30
-42 -5 0 -20 12 -33 26 -29 31 -49 23 -41 -17 5 -27 4 -28 -14 -19 -23 12 -30
13 -30 2 0 -5 26 -21 59 -36 41 -20 65 -26 81 -21 l23 7 -21 -27 c-12 -15 -22
-34 -22 -41 0 -16 -26 -19 -34 -5 -8 12 -88 2 -104 -13 -17 -16 13 -54 74 -97
24 -16 44 -37 44 -46 0 -13 -6 -11 -28 10 -37 35 -53 35 -20 0 31 -34 50 -68
41 -77 -13 -12 -51 -5 -76 14 -14 11 -31 20 -39 20 -21 -1 41 -50 63 -50 10 0
19 -5 19 -11 0 -12 -51 -8 -82 6 -28 11 -22 -20 7 -43 14 -11 48 -23 75 -27
28 -4 50 -10 50 -15 0 -4 -3 -22 -6 -39 -8 -39 -31 -40 -73 -5 -17 14 -31 22
-31 17 0 -14 42 -50 68 -58 23 -7 31 -35 10 -35 -7 0 -36 23 -65 52 -29 29
-53 47 -53 42 0 -15 81 -100 100 -106 12 -4 9 -10 -12 -27 -16 -13 -28 -27
-28 -33 0 -6 10 -3 22 8 l22 19 -18 -30 c-10 -16 -32 -43 -49 -59 -29 -26 -33
-27 -68 -17 -21 6 -52 23 -69 37 -28 24 -30 24 -30 6 0 -20 61 -82 80 -82 16
0 11 -14 -15 -42 -14 -15 -25 -36 -25 -48 0 -26 -11 -25 -45 2 -36 28 -65 92
-65 146 0 24 -5 42 -11 42 -18 0 -5 -102 19 -148 21 -41 21 -42 2 -42 -10 0
-22 -5 -25 -10 -9 -15 -45 33 -45 59 0 12 -5 21 -10 21 -14 0 -1 -49 21 -82
24 -34 24 -36 -6 -30 -17 3 -27 -1 -31 -12 -9 -23 -24 -20 -24 6 0 15 -3 19
-10 12 -7 -7 -7 -19 -1 -36 13 -33 -4 -116 -29 -143 -11 -12 -20 -30 -19 -41
0 -17 1 -17 9 2 13 32 30 39 30 12 -1 -31 -25 -74 -34 -59 -11 18 -26 13 -56
-19 l-28 -30 5 40 c4 26 2 40 -6 40 -6 0 -11 -15 -11 -33 0 -30 -29 -88 -30
-60 0 6 5 15 10 18 6 3 10 12 10 18 0 7 -16 -5 -35 -25 -19 -21 -35 -32 -35
-25 0 8 11 24 25 37 42 39 31 67 -42 104 -65 33 -68 39 -41 93 6 13 8 26 4 30
-13 13 -36 -29 -42 -79 -4 -26 -13 -53 -20 -59 -8 -6 -14 -18 -14 -25 0 -11
-4 -12 -19 -2 -15 9 -24 7 -46 -10 -16 -12 -30 -20 -32 -18 -10 10 19 46 36
46 10 0 25 7 32 16 12 15 11 16 -11 10 -14 -4 -38 -17 -54 -28 l-29 -21 6 23
c3 13 1 32 -4 43 -10 17 -8 18 21 12 31 -7 80 14 80 35 0 6 -20 29 -44 53 -31
29 -46 54 -51 80 -7 36 -5 42 34 81 47 47 50 62 20 100 -28 36 -15 33 37 -10
24 -20 44 -32 44 -26 0 14 -62 62 -113 87 -23 11 -43 26 -45 33 -3 11 0 12 16
3 37 -20 35 7 -2 43 -47 44 -49 92 -6 155 32 47 30 66 -12 95 -26 19 -12 41
32 49 30 6 70 39 70 57 0 6 -27 9 -65 7 -84 -3 -107 16 -98 81 5 36 9 42 30
42 38 0 80 36 98 84 15 40 15 46 1 74 -21 40 -63 72 -95 72 -15 0 -36 6 -46
14 -16 11 -17 18 -8 37 8 19 18 24 49 24 48 0 61 19 17 23 -21 2 -33 9 -33 18
0 16 26 19 35 4 3 -5 11 -10 17 -10 6 0 5 7 -3 17 -13 15 -12 15 18 0 37 -20
53 -21 53 -6 0 5 -20 19 -45 30 -25 11 -45 24 -45 29 0 17 34 11 75 -15 49
-30 64 -31 62 -4 -1 20 -42 45 -99 63 -11 3 -15 11 -11 21 4 11 13 15 24 11
11 -3 28 -9 39 -12 35 -11 21 14 -15 27 -23 9 -34 19 -32 29 2 8 10 13 18 11
8 -2 22 -6 32 -8 29 -9 19 14 -13 27 -18 7 -30 20 -30 31 0 14 7 17 35 16 28
-2 34 -5 29 -19 -3 -10 -1 -18 5 -18 6 0 11 -9 11 -20 0 -31 21 -69 42 -76 21
-6 58 20 58 43 0 21 21 15 51 -13 28 -27 53 -25 42 2 -5 13 -1 15 17 9 16 -5
21 -3 18 5 -5 17 -135 69 -173 70 -27 1 -28 2 -11 12 11 6 49 11 85 12 85 1
87 14 9 44 -15 6 -34 26 -44 43 l-16 32 53 -6 c35 -4 76 -20 121 -46 67 -39
97 -39 62 0 -25 27 -172 106 -225 120 -60 16 -92 6 -147 -45 l-45 -43 -8 -94
c-7 -97 -38 -189 -94 -285 -27 -46 -32 -87 -12 -104 32 -27 90 -60 95 -55 4 3
0 11 -8 16 -13 9 -13 10 0 6 23 -6 23 -30 0 -55 -17 -18 -24 -20 -46 -10 -19
9 -30 9 -45 0 -10 -7 -29 -12 -42 -12 -13 0 -32 -9 -42 -20 -37 -41 -75 -18
-75 43 0 29 10 55 34 91 71 107 166 332 166 392 0 17 6 24 19 24 13 0 18 6 17
17 -2 10 3 24 11 32 12 12 9 16 -24 32 l-38 18 40 -5 c30 -4 36 -3 25 5 -10 7
-11 11 -2 11 23 0 12 16 -20 28 -17 6 -29 14 -26 18 4 3 15 1 26 -5 12 -6 36
-11 54 -10 30 0 28 2 -17 14 -27 8 -53 14 -57 15 -5 0 -8 4 -8 9 0 6 16 3 35
-5 19 -7 45 -14 57 -13 13 0 18 3 11 5 -7 3 -9 12 -6 20 4 10 -2 14 -20 14
-23 0 -84 39 -61 40 5 0 14 -4 20 -9 15 -14 64 -23 64 -11 0 5 -7 10 -16 10
-19 0 -74 31 -74 42 0 4 12 3 26 -2 32 -12 54 -13 54 -1 0 5 -16 12 -35 15
-19 4 -37 11 -40 16 -3 5 0 8 7 6 51 -16 70 -17 65 -2 -4 11 -1 16 11 16 40 1
100 39 133 85 59 83 125 96 190 38z m-466 17 c3 -5 1 -10 -4 -10 -6 0 -11 5
-11 10 0 6 2 10 4 10 3 0 8 -4 11 -10z m520 -10 c3 -5 2 -10 -4 -10 -5 0 -13
5 -16 10 -3 6 -2 10 4 10 5 0 13 -4 16 -10z m-500 -20 c8 -13 -15 -13 -35 0
-12 8 -11 10 7 10 12 0 25 -4 28 -10z m2002 -4 c24 -1 46 -6 50 -11 11 -11
-127 1 -157 14 -21 9 -18 10 20 6 25 -3 64 -7 87 -9z m-1957 -51 l23 -25 -29
0 c-17 0 -39 7 -50 16 -18 15 -18 15 3 5 26 -13 43 -14 43 -3 0 5 -12 13 -27
19 -24 9 -25 11 -7 12 11 1 31 -10 44 -24z m2116 -312 c4 -13 3 -35 -2 -50 -7
-27 -8 -26 -14 14 -3 24 -16 53 -28 66 -32 33 -27 41 8 15 17 -12 33 -33 36
-45z m-1938 -11 c2 -7 -2 -10 -12 -6 -9 3 -16 11 -16 16 0 13 23 5 28 -10z
m962 -40 c0 -15 -57 -89 -82 -106 -26 -18 -65 -21 -104 -6 -23 9 -33 7 -56
-10 l-27 -20 -21 22 c-11 12 -20 27 -20 34 0 21 72 39 150 37 84 -2 126 10
135 38 6 19 25 27 25 11z m-427 -59 c26 -9 47 -20 47 -25 0 -11 -58 1 -105 22
-35 16 -37 18 -15 19 14 1 46 -7 73 -16z m601 -17 c57 -37 101 -178 93 -297
-5 -83 -23 -126 -71 -177 -30 -33 -115 -85 -101 -63 4 7 -4 11 -21 11 -15 0
-24 -3 -21 -7 4 -3 -2 -12 -13 -20 -11 -8 -20 -19 -20 -24 0 -6 15 0 33 12 17
12 5 -2 -27 -32 -71 -65 -83 -72 -103 -65 -11 4 -14 14 -9 34 20 97 20 92 -9
92 -28 0 -95 57 -95 80 0 7 9 1 21 -14 34 -43 119 -76 119 -46 0 6 -8 10 -17
10 -15 0 -16 2 -3 10 12 7 11 10 -5 16 -27 10 -66 40 -84 66 -15 22 -15 22 9
5 14 -9 37 -17 53 -17 21 0 28 -4 24 -14 -7 -16 18 -41 51 -51 28 -8 52 9 52
39 0 11 9 35 20 51 27 41 25 55 -15 115 -19 29 -35 55 -35 59 0 3 10 11 22 16
13 6 27 24 32 40 5 17 17 49 27 73 15 35 22 42 46 42 36 0 71 -24 75 -52 5
-32 28 -35 28 -3 0 17 -12 39 -34 61 -28 28 -41 34 -77 34 -55 0 -114 -29
-164 -79 -32 -34 -39 -48 -40 -87 -2 -35 3 -52 17 -66 28 -28 16 -58 -19 -49
-37 10 -51 35 -35 61 6 11 12 30 12 42 2 69 63 167 123 198 49 25 121 23 161
-4z m-1086 -57 c-3 -8 -7 -3 -11 10 -4 17 -3 21 5 13 5 -5 8 -16 6 -23z m816
-255 c25 -4 35 -12 38 -29 5 -23 4 -23 -21 -7 -39 24 -71 54 -71 66 0 6 5 3
11 -6 5 -10 25 -20 43 -24z m-994 -148 l-22 -21 19 37 c11 23 19 30 21 21 2
-9 -6 -25 -18 -37z m1628 -85 c43 -11 93 -23 113 -26 45 -7 78 -30 64 -44 -8
-8 -22 -5 -50 9 -21 11 -41 18 -43 15 -6 -6 60 -45 78 -45 10 0 11 -3 3 -11
-13 -13 -85 5 -103 26 -7 8 -17 15 -22 15 -16 0 12 -30 43 -46 16 -8 37 -14
49 -14 11 0 20 -4 20 -10 0 -14 -16 -13 -100 11 -78 21 -224 79 -217 85 2 2
36 -5 77 -17 40 -11 80 -18 89 -16 18 4 -169 67 -199 67 -22 0 -26 10 -10 26
13 13 110 2 208 -25z m-108 -78 c52 -22 124 -48 160 -58 36 -10 69 -22 73 -26
5 -3 2 -20 -7 -37 -14 -27 -23 -31 -70 -37 -61 -8 -143 12 -270 66 -57 24 -78
29 -115 23 -62 -8 -81 -14 -81 -24 0 -5 29 -7 64 -3 57 5 74 2 162 -32 55 -20
108 -42 119 -48 11 -6 45 -19 75 -29 l55 -18 -70 3 c-54 2 -85 10 -135 34 -36
17 -96 41 -133 53 -64 21 -74 21 -168 10 -55 -7 -103 -10 -106 -6 -3 3 11 13
33 22 21 9 59 28 84 44 25 15 68 33 96 40 29 6 66 24 85 40 19 16 39 27 44 25
6 -2 53 -21 105 -42z m-505 -72 c3 -6 -3 -15 -14 -20 -27 -15 -30 -14 -24 9 6
21 28 27 38 11z m410 -117 c102 -46 216 -69 278 -57 32 6 37 -12 5 -21 -13 -3
-57 -6 -99 -6 -87 0 -155 20 -253 75 -37 20 -67 32 -70 26 -8 -12 97 -72 179
-102 33 -12 67 -29 76 -36 9 -7 45 -18 80 -24 88 -16 101 -25 47 -33 -84 -13
-178 22 -295 107 -66 49 -139 89 -188 102 l-30 9 40 7 c66 11 124 0 230 -47z
m-209 -5 c28 -11 88 -46 132 -78 44 -31 109 -70 144 -86 54 -26 75 -29 151
-29 65 0 87 -3 87 -13 0 -23 -138 -15 -204 13 -13 5 -17 4 -12 -4 6 -10 112
-37 181 -45 17 -2 3 -5 -30 -6 -127 -3 -246 46 -360 146 -79 69 -131 105 -124
85 9 -24 194 -173 245 -197 31 -15 100 -38 152 -50 134 -34 142 -49 22 -43
-100 5 -160 27 -237 84 -32 24 -53 31 -53 17 0 -12 89 -70 142 -93 26 -11 78
-24 116 -29 38 -5 82 -17 98 -27 l28 -19 -62 -3 c-113 -5 -250 36 -298 90 -19
20 -34 24 -34 8 0 -20 96 -80 159 -100 35 -11 85 -20 111 -20 39 0 55 -5 77
-26 l28 -25 -73 5 c-40 4 -100 15 -132 26 -68 23 -70 23 -70 11 0 -24 188 -68
303 -71 4 0 7 -10 7 -21 0 -18 -4 -20 -32 -15 -18 3 -73 10 -123 16 -51 6
-116 22 -150 36 -33 14 -69 28 -80 31 -18 4 -18 3 3 -16 40 -35 133 -63 259
-79 115 -14 122 -17 128 -40 3 -13 4 -27 1 -30 -10 -9 -226 29 -302 54 -88 28
-90 29 -74 9 15 -18 119 -50 215 -65 162 -27 174 -31 180 -51 4 -11 5 -22 2
-25 -6 -7 -216 24 -283 42 -33 8 -97 35 -143 60 -46 24 -87 42 -90 38 -9 -9
27 -33 114 -75 90 -42 132 -54 285 -75 58 -8 112 -17 121 -19 15 -5 44 -53 36
-61 -2 -2 -28 4 -59 15 -30 10 -103 24 -164 31 -122 14 -211 38 -298 82 -35
18 -57 24 -54 16 5 -19 122 -74 197 -93 35 -9 110 -22 166 -29 114 -15 150
-33 225 -110 52 -54 44 -59 -26 -14 -87 55 -153 78 -301 104 -107 18 -165 34
-219 59 -75 34 -97 33 -46 -3 43 -31 137 -60 264 -82 65 -11 137 -27 161 -35
62 -21 270 -130 275 -144 8 -23 -36 -9 -168 54 -124 58 -153 67 -310 99 -119
24 -192 44 -234 65 -61 30 -74 32 -61 10 18 -27 139 -70 272 -94 154 -28 227
-51 318 -101 34 -19 90 -44 125 -57 35 -12 66 -29 68 -36 9 -27 -90 -3 -193
48 -130 63 -175 76 -322 95 -130 17 -187 34 -233 66 -32 22 -40 25 -40 10 0
-34 145 -83 305 -104 151 -20 257 -61 355 -137 19 -15 54 -34 78 -41 46 -14
58 -32 15 -22 -16 3 -91 35 -168 70 -116 53 -157 66 -240 79 -209 33 -251 45
-337 101 -29 19 -48 13 -29 -9 30 -37 150 -78 282 -97 153 -22 180 -30 322
-99 56 -27 119 -54 140 -61 50 -16 47 -30 -8 -30 -36 0 -70 13 -160 59 -145
75 -179 86 -345 111 -101 15 -150 28 -196 50 -67 33 -74 35 -74 20 0 -11 63
-45 124 -66 22 -8 100 -23 173 -34 159 -23 220 -47 268 -105 19 -24 58 -55 87
-69 45 -23 48 -26 24 -26 -15 0 -65 20 -110 45 -107 58 -145 71 -296 101 -69
14 -147 36 -173 50 -55 27 -57 28 -57 14 0 -5 18 -19 40 -30 40 -20 60 -26
255 -71 68 -16 133 -40 203 -76 57 -29 111 -53 120 -53 15 0 15 -2 2 -10 -24
-15 -75 -2 -225 61 -93 38 -172 63 -235 75 -115 20 -163 37 -213 71 -45 31
-64 21 -23 -12 46 -36 90 -53 233 -84 127 -29 376 -122 357 -134 -5 -2 -29 -8
-54 -12 -95 -15 -254 -56 -294 -76 -22 -12 -58 -30 -79 -40 l-37 -20 -34 26
c-40 30 -166 86 -178 79 -14 -9 0 -21 49 -39 54 -20 133 -66 133 -77 0 -17
-54 -6 -107 22 -56 30 -103 39 -103 20 0 -5 8 -10 18 -10 9 0 46 -14 82 -31
l65 -31 -28 -14 c-24 -13 -33 -13 -72 1 -57 19 -65 19 -65 0 0 -9 9 -15 23
-15 47 0 50 -17 5 -35 -133 -54 -196 -65 -357 -65 -86 0 -162 4 -170 9 -32 20
6 167 70 270 24 41 30 59 25 83 -5 26 -1 37 21 60 29 31 26 47 -6 27 -11 -7
-24 -10 -28 -5 -10 10 52 66 72 66 8 0 15 5 15 10 0 16 -30 11 -66 -11 -26
-16 -34 -17 -34 -6 0 20 33 47 75 61 20 7 35 17 34 22 -3 13 -39 5 -76 -16
-32 -19 -33 -19 -33 0 0 20 59 47 115 52 17 2 29 8 27 13 -4 14 -76 8 -118
-10 -31 -13 -34 -13 -34 4 0 21 51 45 116 56 79 13 87 16 76 27 -13 13 -121
-6 -165 -29 -28 -14 -28 -14 -25 9 4 30 57 56 143 70 36 6 65 15 65 19 0 14
-59 10 -120 -6 -65 -18 -67 -18 -54 -6 5 5 50 21 99 35 116 33 182 58 183 71
0 6 -5 9 -12 7 -17 -3 -175 -53 -219 -68 l-39 -13 7 27 c4 15 7 27 8 28 1 0
31 5 67 11 36 6 95 23 130 38 36 15 92 31 125 35 41 5 49 7 25 9 -19 1 -41 5
-49 10 -9 6 -33 -1 -70 -19 -31 -15 -72 -31 -91 -34 -34 -7 -34 -7 15 23 28
17 58 31 68 31 9 0 17 4 17 9 0 13 -44 0 -107 -32 -28 -15 -71 -29 -95 -32
l-43 -6 58 25 c147 66 174 76 220 76 26 0 47 5 47 10 0 11 -19 14 -67 11 -25
-2 -33 2 -33 13 0 14 9 16 61 11 47 -4 60 -3 57 7 -3 7 -20 15 -39 18 l-34 5
37 18 c20 9 50 17 67 17 17 0 31 5 31 10 0 6 -18 10 -40 10 -40 0 -53 13 -24
24 9 3 36 6 60 6 24 0 44 4 44 9 0 15 -38 23 -73 16 l-32 -7 23 23 c17 18 34
24 70 25 60 0 71 18 14 22 -38 3 -41 5 -32 23 8 14 21 19 50 19 21 0 42 5 45
10 4 6 -10 10 -34 10 -40 0 -55 13 -27 23 7 3 34 9 60 12 72 11 70 29 -2 22
-34 -3 -62 -4 -62 -2 0 23 19 35 61 41 62 8 65 27 4 22 -38 -3 -45 0 -45 14 0
15 9 18 50 18 28 0 50 4 50 9 0 11 -75 25 -90 16 -5 -3 -10 3 -10 14 0 27 12
33 74 33 37 0 68 -7 100 -22 47 -24 74 -21 40 5 -35 26 -113 47 -164 43 -48
-3 -50 -2 -50 24 0 17 6 28 18 32 32 9 155 -5 208 -25z m524 6 c0 -16 -46 -20
-90 -8 -23 7 -21 8 15 14 66 10 75 10 75 -6z m-780 -81 c0 -33 -2 -36 -22 -29
-13 4 -38 9 -56 12 -18 3 -35 10 -39 16 -4 7 4 8 25 4 22 -5 37 -1 54 13 32
27 38 25 38 -16z m770 -45 c0 -24 -4 -30 -15 -25 -8 3 -46 11 -83 17 -37 6
-71 16 -77 21 -7 7 2 8 25 4 19 -3 58 -2 85 3 28 5 53 9 58 10 4 0 7 -13 7
-30z m-10 -169 c0 -5 -7 -7 -15 -4 -8 4 -15 8 -15 10 0 2 7 4 15 4 8 0 15 -4
15 -10z m-21 -49 c7 -5 12 -14 9 -21 -2 -7 -10 -4 -22 9 -19 21 -12 28 13 12z
m9 -88 c4 -30 -9 -29 -39 3 l-24 26 30 -4 c22 -2 31 -9 33 -25z m-895 0 c-7
-2 -19 -2 -25 0 -7 3 -2 5 12 5 14 0 19 -2 13 -5z m-143 -153 c18 -11 17 -11
-49 -45 l-53 -27 33 41 c36 43 45 47 69 31z m1159 -275 c17 -25 29 -45 28 -45
-2 0 -29 27 -62 61 -50 51 -55 59 -28 45 17 -9 45 -36 62 -61z m69 -211 c35
-10 26 -27 -10 -20 -39 8 -62 26 -32 26 10 0 29 -3 42 -6z m-98 -110 c38 -6
40 -7 20 -21 -29 -20 -91 1 -143 49 l-42 39 62 -30 c34 -17 80 -33 103 -37z"/>
<path d="M2588 4274 c-16 -15 -7 -19 39 -16 41 3 57 -2 115 -37 37 -23 75 -41
85 -41 10 0 4 7 -17 18 -19 11 -56 31 -81 45 -47 27 -128 45 -141 31z"/>
<path d="M3023 4244 c4 -4 17 -12 29 -18 37 -19 61 -72 61 -137 0 -32 4 -56 9
-53 12 8 10 70 -4 116 -14 46 -58 98 -84 98 -9 0 -14 -3 -11 -6z"/>
<path d="M2228 4220 c35 -29 84 -34 149 -16 l58 16 -50 -7 c-74 -9 -114 -6
-140 11 -34 22 -45 19 -17 -4z"/>
<path d="M2502 4219 c16 -11 95 -12 102 -1 2 4 -23 8 -55 8 -35 1 -55 -3 -47
-7z"/>
<path d="M2965 4195 c-17 -16 -25 -35 -25 -57 0 -44 -31 -93 -72 -114 -19 -10
-27 -19 -20 -22 16 -5 78 41 93 70 6 11 14 41 18 67 5 40 11 48 41 63 30 15
31 18 12 18 -13 0 -34 -11 -47 -25z"/>
<path d="M2453 4181 c-7 -11 -23 -18 -39 -18 -29 0 -64 -33 -64 -59 0 -23 20
-16 32 11 8 18 19 25 38 25 27 0 60 27 60 48 0 18 -14 14 -27 -7z"/>
<path d="M2557 4178 c-17 -12 -11 -14 45 -10 51 3 75 -1 115 -18 56 -24 83
-24 91 0 5 13 3 13 -11 1 -15 -12 -24 -10 -68 9 -66 28 -148 37 -172 18z"/>
<path d="M3018 4173 c-24 -27 -46 -75 -53 -116 -8 -42 -40 -72 -85 -82 -17 -4
-30 -11 -30 -16 0 -15 83 12 94 30 11 17 46 -11 46 -36 0 -12 5 -25 10 -28 19
-12 11 54 -9 67 -17 12 -18 20 -10 61 9 51 22 81 47 110 8 9 13 19 10 22 -3 3
-12 -3 -20 -12z"/>
<path d="M2130 4162 c0 -25 30 -34 90 -27 62 7 61 8 64 -34 2 -29 26 -23 26 7
0 39 -23 57 -68 53 -66 -5 -77 -4 -94 3 -11 5 -18 4 -18 -2z"/>
<path d="M3042 4103 c-29 -40 -28 -65 4 -113 18 -27 24 -45 19 -61 -5 -15 -3
-20 6 -17 24 8 21 46 -7 97 -27 48 -28 50 -10 70 10 11 16 28 14 38 -3 15 -7
12 -26 -14z"/>
<path d="M2013 4068 c-17 -27 -45 -51 -73 -65 -29 -14 -38 -22 -25 -23 32 0
82 36 110 80 27 43 37 47 75 25 15 -8 49 -14 85 -13 l60 1 -55 6 c-30 4 -65
12 -77 19 -42 23 -70 15 -100 -30z"/>
<path d="M2464 4066 c-20 -20 -34 -44 -34 -57 1 -21 4 -18 21 14 41 78 117 79
183 2 21 -25 44 -45 52 -45 19 0 -64 83 -103 104 -49 25 -81 20 -119 -18z"/>
<path d="M2402 4055 c-19 -41 -14 -77 13 -105 25 -27 26 -27 7 -50 -22 -28
-34 -22 -67 31 -14 21 -38 45 -55 54 -36 19 -39 35 -6 35 29 0 56 9 56 20 0 8
-70 -3 -88 -14 -22 -13 -12 -36 22 -50 19 -8 46 -33 62 -57 33 -50 57 -59 85
-33 23 21 25 47 3 64 -29 25 -36 49 -24 86 14 42 8 55 -8 19z"/>
<path d="M2692 4049 c5 -16 96 -65 105 -56 3 4 -7 12 -23 19 -16 6 -42 21 -58
32 -20 13 -27 15 -24 5z"/>
<path d="M1800 4036 c0 -15 29 -50 36 -43 6 5 -20 57 -28 57 -5 0 -8 -6 -8
-14z"/>
<path d="M2516 4013 c4 -21 -3 -41 -26 -75 -19 -28 -30 -57 -28 -70 3 -20 6
-19 22 15 10 20 22 40 27 42 15 10 42 -59 43 -106 1 -54 -20 -84 -65 -94 -33
-8 -39 -25 -8 -25 30 0 76 29 88 57 17 36 13 93 -10 142 -11 25 -19 61 -17 81
2 37 -7 60 -22 60 -5 0 -7 -12 -4 -27z"/>
<path d="M1995 3956 c-20 -25 -57 -55 -81 -67 -48 -23 -53 -34 -11 -23 30 7
165 134 143 134 -8 0 -31 -20 -51 -44z"/>
<path d="M3273 3973 c23 -69 33 -93 39 -93 14 0 8 52 -9 81 -19 32 -39 39 -30
12z"/>
<path d="M2150 3966 c0 -22 23 -34 70 -38 42 -3 45 -5 53 -41 11 -45 54 -77
105 -77 36 0 45 20 10 20 -52 1 -81 24 -92 70 -11 45 -11 45 -58 48 -25 2 -52
10 -58 18 -16 18 -30 18 -30 0z"/>
<path d="M3130 3968 c1 -17 70 -95 70 -78 0 7 -16 30 -35 51 -19 22 -35 33
-35 27z"/>
<path d="M1730 3960 c0 -11 32 -30 51 -30 6 0 0 9 -14 20 -28 22 -37 25 -37
10z"/>
<path d="M3387 3948 c12 -36 8 -84 -10 -111 -9 -14 -48 -46 -86 -70 -38 -25
-72 -50 -75 -56 -12 -18 5 -12 35 13 16 14 51 37 77 51 27 14 56 39 65 55 25
42 21 140 -5 140 -5 0 -6 -9 -1 -22z"/>
<path d="M2601 3942 c-6 -12 -3 -34 10 -72 24 -69 24 -78 -6 -134 -13 -25 -20
-46 -15 -46 16 0 50 77 50 113 0 19 -7 51 -16 72 -17 41 -12 77 8 57 7 -7 23
-12 38 -11 l25 1 -27 10 c-16 5 -28 14 -28 19 0 16 -29 10 -39 -9z"/>
<path d="M2748 3914 c-28 -15 -38 -34 -18 -34 6 0 22 7 36 17 24 15 27 15 52
-5 61 -49 81 -55 139 -42 36 8 53 16 53 27 0 10 -5 13 -17 8 -10 -4 -37 -10
-60 -12 -36 -5 -48 -1 -84 26 -48 35 -62 37 -101 15z"/>
<path d="M2900 3911 c0 -7 20 -11 53 -11 58 -1 151 -29 146 -45 -2 -5 -24 -17
-48 -25 -50 -17 -63 -34 -28 -37 62 -6 179 -8 188 -2 16 9 -73 19 -113 13 -21
-4 -38 -2 -42 4 -10 17 61 26 111 15 58 -14 64 0 7 15 -24 7 -53 21 -63 31
-23 23 -74 39 -153 48 -41 4 -58 2 -58 -6z"/>
<path d="M3117 3904 c-9 -9 74 -64 96 -64 10 0 27 -5 38 -10 12 -7 19 -7 19
-1 0 6 -19 16 -42 23 -24 6 -57 22 -74 35 -17 13 -34 20 -37 17z"/>
<path d="M2115 3863 c64 -14 75 -24 75 -67 0 -63 21 -86 78 -85 26 0 56 5 67
10 14 6 4 8 -33 4 -73 -8 -92 5 -92 60 0 58 -25 85 -77 84 -21 -1 -29 -3 -18
-6z"/>
<path d="M2690 3850 c-9 -16 -8 -20 5 -20 8 0 15 9 15 20 0 11 -2 20 -5 20 -2
0 -9 -9 -15 -20z"/>
<path d="M2475 3798 c-11 -11 -46 -43 -77 -72 -50 -45 -58 -57 -58 -88 0 -20
7 -44 16 -52 26 -27 36 -18 14 12 -35 48 -19 83 72 151 31 23 59 49 62 57 7
19 -5 16 -29 -8z"/>
<path d="M2741 3791 c-11 -11 -21 -27 -21 -33 0 -7 9 -2 19 11 20 26 39 28
132 16 36 -5 59 -4 63 3 4 6 -8 10 -32 9 -20 0 -60 3 -88 8 -45 7 -54 5 -73
-14z"/>
<path d="M2668 3794 c-5 -4 -8 -17 -8 -29 0 -27 25 -52 35 -35 3 5 2 10 -4 10
-5 0 -11 14 -13 31 -2 17 -6 27 -10 23z"/>
<path d="M2985 3770 c-11 -5 -32 -9 -47 -9 -26 -1 -42 -21 -17 -21 22 0 100
23 105 31 6 11 -14 10 -41 -1z"/>
<path d="M3325 3749 c-16 -10 -34 -21 -40 -23 -5 -2 -7 -6 -3 -10 6 -7 88 39
88 49 0 9 -15 4 -45 -16z"/>
<path d="M2775 3720 c-10 -11 -13 -20 -7 -20 6 0 14 4 17 10 3 5 20 14 38 19
l32 9 -31 1 c-19 1 -38 -7 -49 -19z"/>
<path d="M2985 3735 c-5 -2 -22 -6 -38 -9 -30 -7 -67 -39 -67 -58 0 -6 14 1
31 18 28 27 36 29 97 28 37 -1 86 -5 108 -9 28 -5 44 -3 49 5 5 9 1 10 -13 6
-12 -4 -42 0 -67 8 -43 15 -77 19 -100 11z"/>
<path d="M2653 3693 c-7 -2 -13 -11 -13 -19 0 -17 5 -17 30 -2 18 11 25 8 60
-30 40 -44 78 -54 88 -23 3 9 -1 11 -14 7 -23 -7 -34 0 -63 42 -22 31 -52 40
-88 25z"/>
<path d="M3050 3666 c0 -13 9 -34 20 -47 22 -28 27 -14 5 15 -26 35 -19 48 23
41 27 -5 33 -4 22 4 -8 6 -27 11 -42 11 -23 0 -28 -4 -28 -24z"/>
<path d="M2972 3644 c-26 -18 -28 -41 -6 -73 11 -16 15 -35 11 -62 -6 -47 1
-49 29 -6 26 39 39 77 26 77 -5 0 -12 -14 -16 -32 l-6 -32 -20 39 c-27 53 -25
72 8 89 15 9 20 15 12 16 -9 0 -26 -7 -38 -16z"/>
<path d="M3080 3652 c0 -4 9 -13 20 -20 11 -7 31 -37 45 -67 23 -53 25 -55 63
-55 23 0 45 6 52 15 18 22 8 26 -27 13 -38 -14 -58 -1 -68 42 -9 39 -42 80
-66 80 -10 0 -19 -3 -19 -8z"/>
<path d="M3340 3614 c-17 -15 -28 -29 -25 -32 3 -3 15 4 28 16 12 11 33 25 47
31 23 9 24 10 3 10 -12 1 -36 -11 -53 -25z"/>
<path d="M3424 3617 c-47 -25 -164 -127 -146 -127 6 0 35 21 64 47 29 25 79
59 113 74 44 21 53 28 35 28 -14 0 -44 -10 -66 -22z"/>
<path d="M3545 3620 c-3 -5 1 -10 9 -10 9 0 16 5 16 10 0 6 -4 10 -9 10 -6 0
-13 -4 -16 -10z"/>
<path d="M2600 3610 c0 -5 14 -25 30 -43 18 -21 30 -46 30 -63 0 -35 8 -47 37
-63 27 -14 103 -15 103 -1 0 6 -11 8 -25 4 -56 -14 -105 18 -105 69 0 18 -9
40 -21 54 l-22 22 34 -10 c19 -6 55 -22 80 -35 49 -25 103 -31 114 -14 4 6
-10 10 -35 10 -23 0 -58 9 -78 19 -44 22 -131 61 -137 61 -3 0 -5 -4 -5 -10z"/>
<path d="M2897 3539 l6 -71 -34 21 c-34 21 -73 26 -103 15 -27 -11 -18 -26 12
-19 37 8 75 -7 125 -50 31 -27 50 -35 79 -35 27 0 38 4 38 15 0 11 -8 13 -30
8 -45 -9 -72 19 -64 66 6 40 -11 121 -26 121 -5 0 -6 -31 -3 -71z"/>
<path d="M3037 3594 c18 -8 44 -32 58 -53 29 -46 64 -81 81 -81 7 0 -20 34
-61 75 -42 43 -81 75 -91 74 -13 0 -8 -5 13 -15z"/>
<path d="M3277 3593 c-4 -3 -7 -13 -7 -21 0 -12 3 -12 15 -2 8 7 15 16 15 21
0 11 -14 12 -23 2z"/>
<path d="M3498 3573 c-26 -30 -38 -60 -38 -93 0 -45 -25 -86 -60 -99 -18 -6
-29 -15 -26 -20 10 -15 63 8 86 36 13 17 20 41 20 68 0 29 8 54 25 79 14 20
25 39 25 41 0 11 -18 4 -32 -12z"/>
<path d="M2571 3557 c-1 -15 5 -43 13 -61 15 -37 78 -90 98 -84 8 3 0 11 -18
21 -41 21 -54 38 -75 100 -14 41 -18 46 -18 24z"/>
<path d="M3426 3544 c-9 -9 -26 -34 -37 -55 -18 -37 -29 -45 -84 -64 -11 -4
-15 -9 -8 -12 24 -9 82 26 99 59 9 18 26 43 37 55 24 27 17 42 -7 17z"/>
<path d="M3551 3501 c19 -22 38 -40 42 -40 13 -2 -14 43 -37 61 -37 30 -40 19
-5 -21z"/>
<path d="M3072 3426 c3 -41 11 -63 28 -81 34 -36 47 -31 16 6 -19 23 -26 42
-26 74 0 24 -5 47 -11 51 -9 5 -10 -9 -7 -50z"/>
<path d="M3206 3459 c-34 -27 -26 -38 10 -14 22 14 28 15 35 4 14 -23 10 -29
-18 -29 -27 -1 -26 -2 12 -22 22 -11 58 -35 80 -52 45 -36 75 -50 75 -36 0 6
-6 10 -13 10 -8 0 -24 12 -38 26 -13 14 -38 34 -55 45 -24 14 -31 25 -27 39 5
19 -11 50 -27 50 -4 0 -19 -10 -34 -21z"/>
<path d="M2810 3407 c3 -3 41 -20 84 -38 65 -27 95 -48 167 -116 77 -74 159
-128 159 -105 0 4 -16 14 -36 21 -21 8 -69 46 -113 91 -78 79 -159 130 -231
145 -19 4 -33 5 -30 2z"/>
<path d="M3144 3402 c3 -5 27 -15 53 -23 35 -9 60 -26 97 -66 46 -48 50 -56
48 -95 -2 -24 -8 -60 -13 -81 -7 -25 -6 -43 0 -55 9 -14 10 -12 11 14 0 17 5
45 11 63 l11 32 17 -33 c11 -23 33 -41 71 -60 51 -24 78 -48 100 -87 5 -9 12
-13 16 -9 14 15 -49 79 -105 107 -54 28 -81 60 -81 96 0 17 16 20 25 5 3 -5
16 -10 28 -10 18 1 16 4 -13 20 -19 10 -58 45 -87 78 -50 58 -105 92 -166 106
-16 4 -26 3 -23 -2z m213 -194 c-3 -8 -6 -5 -6 6 -1 11 2 17 5 13 3 -3 4 -12
1 -19z"/>
<path d="M3103 3285 c57 -59 100 -95 112 -95 19 1 19 1 -1 13 -35 20 -76 59
-128 120 -27 31 -54 57 -62 57 -7 0 29 -43 79 -95z"/>
<path d="M3508 3360 c25 -20 67 -34 137 -44 l40 -5 -30 14 c-16 8 -39 14 -50
15 -11 0 -40 9 -64 20 -54 25 -63 25 -33 0z"/>
<path d="M2770 3362 c0 -5 19 -15 43 -21 23 -6 76 -30 117 -53 64 -37 79 -51
103 -96 28 -51 55 -73 110 -86 45 -11 30 8 -21 26 -41 15 -53 25 -72 64 -29
56 -62 82 -160 128 -89 41 -120 51 -120 38z"/>
<path d="M3156 3341 c-10 -15 24 -90 45 -101 10 -6 36 -10 58 -10 45 0 49 -9
26 -54 -19 -36 -12 -45 15 -21 16 14 20 29 18 59 l-3 41 -44 -3 c-51 -3 -76
15 -86 59 -7 31 -20 45 -29 30z"/>
<path d="M3210 3322 c0 -11 38 -42 52 -42 5 0 8 5 8 10 0 6 -5 10 -12 10 -6 0
-20 7 -30 17 -10 9 -18 11 -18 5z"/>
<path d="M3450 3320 c0 -16 56 -40 117 -49 32 -4 67 -12 78 -16 18 -7 19 -6 4
9 -9 10 -41 19 -82 24 -38 5 -74 15 -85 25 -21 19 -32 22 -32 7z"/>
<path d="M3420 3284 c0 -21 40 -46 103 -65 39 -12 81 -28 94 -36 14 -9 23 -11
23 -4 0 14 -43 35 -112 56 -31 9 -68 25 -82 36 -14 11 -26 17 -26 13z"/>
<path d="M3062 3094 c25 -25 118 -52 118 -34 0 4 -18 10 -41 13 -23 3 -51 15
-63 26 -33 31 -45 26 -14 -5z"/>
<path d="M3520 3116 c0 -2 18 -13 40 -24 46 -22 56 -11 10 13 -28 14 -50 19
-50 11z"/>
<path d="M3238 3103 c12 -2 32 -2 45 0 12 2 2 4 -23 4 -25 0 -35 -2 -22 -4z"/>
<path d="M3360 3066 c0 -40 11 -50 67 -65 35 -10 40 -14 36 -34 -5 -21 -5 -21
13 -4 26 25 8 49 -50 65 -41 12 -46 16 -46 43 0 16 -4 29 -10 29 -5 0 -10 -15
-10 -34z"/>
<path d="M3271 3075 c7 -17 125 -125 137 -125 6 0 -15 24 -46 53 -68 62 -97
86 -91 72z"/>
<path d="M3420 3065 c0 -3 11 -10 25 -15 24 -9 35 -23 78 -101 10 -17 20 -29
23 -26 9 9 -48 107 -74 128 -23 18 -52 26 -52 14z"/>
<path d="M3060 3051 c0 -5 9 -19 19 -32 16 -20 23 -22 47 -14 15 6 29 17 32
25 4 12 2 13 -9 3 -21 -20 -60 -16 -66 7 -5 20 -23 28 -23 11z"/>
<path d="M3225 3037 c11 -7 39 -32 63 -56 23 -24 45 -41 49 -38 10 11 -92 107
-113 106 -18 0 -18 -1 1 -12z"/>
<path d="M3471 2893 c18 -21 35 -40 37 -42 1 -2 5 -2 8 1 7 8 -55 78 -69 78
-6 0 5 -17 24 -37z"/>
<path d="M3050 2902 c0 -21 91 -77 113 -69 7 2 -9 13 -36 25 -26 11 -50 28
-53 36 -6 17 -24 22 -24 8z"/>
<path d="M3160 2883 c1 -11 119 -90 153 -103 35 -12 90 -14 67 -1 -8 5 -32 11
-52 15 -20 4 -64 27 -96 51 -60 45 -72 52 -72 38z"/>
<path d="M1910 3763 c1 -11 70 -45 70 -34 0 5 -6 13 -12 19 -19 14 -58 25 -58
15z"/>
<path d="M2031 3696 c12 -10 59 -15 59 -6 0 5 -14 10 -32 10 -17 0 -29 -2 -27
-4z"/>
<path d="M2050 3650 c0 -5 12 -10 26 -10 14 0 23 4 19 10 -3 6 -15 10 -26 10
-10 0 -19 -4 -19 -10z"/>
<path d="M2080 3602 c0 -11 79 -31 85 -22 2 4 -13 12 -34 19 -45 13 -51 14
-51 3z"/>
<path d="M1930 3561 c30 -9 82 -35 115 -56 83 -53 134 -75 175 -74 32 0 31 1
-17 14 -29 8 -87 36 -130 63 -85 53 -132 72 -172 71 -18 0 -9 -6 29 -18z"/>
<path d="M2105 3535 c17 -8 41 -14 55 -14 22 0 21 2 -10 14 -48 19 -86 18 -45
0z"/>
<path d="M2090 3432 c0 -15 29 -42 59 -54 16 -6 21 -12 13 -15 -7 -3 -24 3
-38 12 -27 17 -46 13 -27 -6 14 -14 123 -40 123 -30 0 11 -45 51 -57 51 -6 0
-25 12 -42 26 -17 14 -31 21 -31 16z"/>
<path d="M2142 3428 c7 -19 48 -38 86 -38 44 0 41 16 -3 17 -20 1 -47 9 -61
18 -19 12 -25 13 -22 3z"/>
<path d="M1990 3240 c0 -5 14 -17 31 -25 17 -9 29 -19 26 -22 -3 -2 -16 3 -30
12 -36 23 -45 1 -12 -29 l26 -24 -29 -23 c-16 -13 -44 -32 -62 -42 -25 -14
-30 -21 -21 -30 9 -9 20 -7 47 8 45 24 117 102 111 120 -6 13 32 25 79 25 13
0 24 4 24 9 0 5 -29 6 -65 4 -49 -4 -70 -2 -89 11 -29 19 -36 20 -36 6z"/>
<path d="M2298 3158 c16 -20 64 -32 92 -23 33 10 23 20 -22 20 -24 1 -52 5
-63 10 -18 8 -18 7 -7 -7z"/>
<path d="M2265 3090 c10 -11 20 -18 23 -15 7 6 -18 35 -31 35 -5 0 -2 -9 8
-20z"/>
<path d="M2320 3081 c0 -11 36 -21 75 -20 24 0 21 3 -20 14 -27 8 -51 14 -52
15 -2 0 -3 -4 -3 -9z"/>
<path d="M2235 3060 c3 -5 11 -10 16 -10 6 0 7 5 4 10 -3 6 -11 10 -16 10 -6
0 -7 -4 -4 -10z"/>
<path d="M2333 3035 c15 -14 40 -25 55 -25 23 1 20 4 -23 25 -62 31 -67 31
-32 0z"/>
<path d="M2270 3032 c0 -16 47 -50 81 -57 45 -10 46 1 2 15 -21 7 -48 22 -60
33 -13 11 -23 16 -23 9z"/>
<path d="M2230 2990 c0 -5 5 -10 10 -10 6 0 10 5 10 10 0 6 -4 10 -10 10 -5 0
-10 -4 -10 -10z"/>
<path d="M2210 2956 c0 -9 5 -16 10 -16 6 0 10 4 10 9 0 6 -4 13 -10 16 -5 3
-10 -1 -10 -9z"/>
<path d="M2250 2931 c0 -12 72 -51 95 -51 8 0 15 5 15 10 0 6 -10 10 -21 10
-12 0 -37 9 -55 21 -19 11 -34 16 -34 10z"/>
<path d="M2230 2891 c0 -5 15 -21 33 -36 32 -26 32 -26 4 -15 -34 12 -37 12
-37 1 0 -5 12 -12 27 -16 15 -3 39 -15 54 -26 29 -20 39 -23 39 -11 0 4 -12
15 -27 25 l-28 17 35 -6 c32 -5 31 -3 -18 22 -30 14 -56 32 -59 40 -6 16 -23
19 -23 5z"/>
<path d="M2180 2833 c19 -9 63 -32 98 -50 34 -19 62 -29 62 -23 0 12 -156 90
-179 89 -9 0 0 -8 19 -16z"/>
<path d="M2140 2802 c0 -5 15 -12 33 -16 17 -3 62 -27 99 -52 36 -26 72 -44
80 -41 9 3 8 7 -5 12 -10 4 -48 27 -83 51 -36 24 -72 44 -79 44 -7 0 -20 3
-29 6 -9 3 -16 2 -16 -4z"/>
<path d="M2115 2760 c-4 -6 6 -10 22 -10 15 -1 45 -7 66 -14 20 -8 37 -10 37
-5 0 4 -23 15 -52 24 -61 18 -65 18 -73 5z"/>
<path d="M2110 2714 c0 -9 102 -45 108 -39 2 2 -7 10 -20 19 -29 19 -88 32
-88 20z"/>
<path d="M2385 2710 c-7 -12 12 -12 40 0 18 8 17 9 -7 9 -15 1 -30 -3 -33 -9z"/>
<path d="M2506 2692 c53 -39 79 -52 101 -52 11 1 4 8 -19 19 -20 10 -49 28
-64 40 -15 12 -34 21 -42 21 -8 0 3 -13 24 -28z"/>
<path d="M1760 2701 c0 -5 7 -11 15 -14 8 -4 28 -33 45 -66 33 -66 85 -131
105 -131 7 0 -2 16 -20 36 -18 20 -47 62 -65 95 -17 32 -38 65 -46 74 -17 17
-34 20 -34 6z"/>
<path d="M2110 2669 c14 -7 42 -21 64 -31 21 -10 40 -17 43 -15 10 10 -59 49
-94 53 -35 4 -36 4 -13 -7z"/>
<path d="M2080 2621 c0 -5 10 -11 23 -14 12 -3 48 -16 81 -30 48 -21 55 -26
37 -32 -12 -4 -30 0 -43 9 -12 9 -32 16 -43 16 -12 0 -30 7 -41 15 -10 8 -26
14 -34 14 -11 0 -10 -3 4 -14 19 -14 18 -15 -9 -15 -49 0 -14 -20 46 -27 89
-10 89 -21 -1 -22 -47 0 -88 -6 -94 -12 -8 -8 -2 -9 22 -4 20 4 32 3 32 -4 0
-6 11 -11 24 -11 41 0 90 -41 105 -90 17 -54 20 -58 31 -41 6 11 15 10 44 -8
20 -13 36 -19 36 -14 0 5 -18 20 -40 33 -40 25 -59 70 -22 55 43 -18 54 -15
20 6 -21 13 -38 27 -38 32 0 4 10 1 22 -7 12 -9 32 -16 43 -16 16 0 13 4 -14
21 -18 11 -31 23 -28 26 4 3 22 -4 42 -15 19 -12 35 -17 35 -12 0 6 -15 19
-32 30 -18 11 -27 20 -20 20 7 0 24 -7 37 -16 27 -18 35 -8 9 11 -14 10 -13
13 10 28 48 32 28 59 -28 37 -16 -6 -27 -6 -31 0 -4 6 -18 10 -33 10 -15 0
-51 11 -80 25 -58 27 -72 30 -72 16z"/>
<path d="M2410 2577 c0 -14 19 -37 31 -37 4 0 2 11 -4 25 -13 27 -27 33 -27
12z"/>
<path d="M1854 2454 c6 -45 41 -130 59 -141 18 -11 19 8 3 26 -10 11 -16 26
-13 33 4 8 8 5 12 -9 12 -39 20 -26 21 33 0 55 0 56 -17 35 -10 -12 -20 -27
-22 -34 -10 -23 -27 16 -27 61 0 24 -5 42 -11 42 -8 0 -10 -15 -5 -46z"/>
<path d="M1791 2433 c13 -16 25 -30 27 -32 1 -2 5 -1 9 2 8 8 -36 57 -50 57
-6 0 0 -12 14 -27z"/>
<path d="M2350 2435 c-24 -13 -24 -14 -4 -15 12 0 27 7 34 15 16 19 3 19 -30
0z"/>
<path d="M1960 2411 c0 -17 60 -43 87 -38 16 3 33 -3 48 -17 12 -11 34 -29 48
-39 15 -9 24 -23 21 -30 -6 -16 33 -54 43 -43 4 4 -3 16 -17 26 -21 16 -22 20
-7 20 14 0 10 7 -15 28 -18 16 -41 31 -50 35 -10 3 -20 18 -24 32 -6 24 -24
36 -24 15 0 -16 -58 -12 -85 6 -15 10 -25 12 -25 5z"/>
<path d="M1800 2293 c0 -27 5 -55 10 -63 8 -12 10 -10 10 9 0 23 1 23 18 8 10
-10 25 -17 32 -17 7 0 1 11 -14 25 -14 13 -26 30 -27 37 0 7 -4 4 -9 -7 -8
-19 -9 -19 -9 2 -1 12 4 23 11 25 6 2 8 10 4 16 -15 25 -26 10 -26 -35z"/>
<path d="M1950 2313 c0 -4 9 -14 20 -20 10 -7 22 -28 26 -48 3 -19 10 -35 15
-35 13 0 0 50 -20 79 -18 26 -41 39 -41 24z"/>
<path d="M2348 2297 c-16 -6 -28 -14 -28 -19 0 -11 9 -9 55 12 43 20 20 26
-27 7z"/>
<path d="M2262 2250 c-16 -26 -15 -47 3 -54 9 -3 15 -18 15 -34 0 -36 19 -92
31 -92 6 0 5 8 -1 19 -5 11 -10 35 -9 53 1 18 -4 51 -9 72 -6 22 -9 44 -6 48
3 4 1 8 -3 8 -5 0 -14 -9 -21 -20z"/>
<path d="M2379 2217 c-9 -19 -6 -31 11 -63 20 -36 21 -36 15 -9 -4 17 -8 45
-8 63 -1 38 -4 40 -18 9z"/>
<path d="M2152 2210 c5 -16 48 -46 48 -34 0 5 -12 18 -27 28 -16 12 -24 14
-21 6z"/>
<path d="M1970 2203 c0 -14 79 -88 86 -80 9 9 -5 75 -17 83 -8 4 -9 -4 -4 -27
6 -34 6 -34 -12 -14 -26 30 -53 49 -53 38z"/>
<path d="M1911 2178 c-1 -32 43 -88 69 -88 22 0 70 -20 69 -29 0 -3 -4 -15 -9
-26 -8 -19 -9 -19 -9 3 -1 12 -5 22 -11 22 -13 0 -13 -63 0 -76 5 -5 16 -32
24 -59 14 -46 14 -51 -4 -79 l-18 -30 4 60 c4 48 1 65 -16 93 -28 44 -35 35
-10 -14 15 -30 18 -50 14 -91 -4 -30 -2 -59 4 -70 11 -18 11 -18 12 1 1 15 4
12 14 -11 8 -18 19 -35 25 -38 15 -10 13 5 -4 28 -18 24 -19 59 -3 85 9 15 9
28 0 59 -16 54 -15 114 3 138 20 26 19 36 -3 30 -10 -4 -27 1 -38 9 -10 8 -28
15 -40 15 -25 0 -47 24 -62 65 l-10 30 -1 -27z"/>
<path d="M2133 2172 c10 -10 24 -43 33 -73 9 -30 23 -61 31 -69 14 -13 15 -13
8 5 -4 11 -16 47 -26 79 -17 55 -31 75 -53 76 -5 0 -2 -8 7 -18z"/>
<path d="M1780 2103 c0 -28 62 -71 114 -80 50 -8 45 4 -6 18 -46 11 -77 32
-96 64 -11 19 -11 19 -12 -2z"/>
<path d="M2085 2070 c-14 -23 34 -115 51 -97 4 4 0 15 -9 25 -10 10 -17 30
-17 45 0 28 -15 44 -25 27z"/>
<path d="M2340 1985 c19 -19 40 -35 47 -35 7 0 -4 16 -26 35 -21 19 -42 35
-47 35 -4 0 7 -16 26 -35z"/>
<path d="M1851 1967 c-1 -21 -7 -48 -15 -60 -21 -33 -29 -67 -17 -67 6 0 11 8
11 19 0 10 9 30 20 44 17 21 19 32 11 64 l-9 38 -1 -38z"/>
<path d="M1946 1816 c-9 -14 -16 -36 -16 -48 0 -17 6 -12 20 21 23 50 21 64
-4 27z"/>
<path d="M1998 1728 c13 -7 26 -26 32 -47 12 -44 27 -68 36 -58 4 3 2 12 -3
19 -6 7 -13 26 -17 43 -10 40 -24 55 -50 54 -21 0 -21 0 2 -11z"/>
<path d="M1980 1650 c20 -13 33 -13 25 0 -3 6 -14 10 -23 10 -15 0 -15 -2 -2
-10z"/>
<path d="M2493 3228 c-27 -13 -32 -34 -5 -22 9 4 35 9 57 10 53 3 52 3 35 14
-19 13 -59 12 -87 -2z"/>
<path d="M2860 3152 c0 -5 10 -14 23 -19 14 -7 31 -30 42 -59 15 -40 16 -52 6
-78 -23 -55 -24 -75 -7 -82 26 -10 48 14 35 38 -6 11 -8 34 -5 50 7 36 -19
106 -51 136 -25 23 -43 29 -43 14z"/>
<path d="M2836 3101 c-11 -12 -14 -21 -8 -21 15 0 3 -42 -17 -58 -14 -13 -14
-13 3 -10 12 2 24 18 33 43 18 54 14 74 -11 46z"/>
<path d="M2890 2861 c5 -11 15 -23 20 -26 6 -4 7 -11 4 -17 -5 -8 -1 -9 10 -5
10 4 20 7 23 7 2 0 -9 14 -25 30 -35 34 -47 39 -32 11z"/>
<path d="M2940 2870 c-13 -8 -12 -10 3 -10 9 0 17 5 17 10 0 12 -1 12 -20 0z"/>
<path d="M2860 2830 c0 -7 24 -20 36 -20 13 0 1 19 -16 23 -11 3 -20 2 -20 -3z"/>
<path d="M2885 2780 c3 -5 12 -7 20 -3 21 7 19 13 -6 13 -11 0 -18 -4 -14 -10z"/>
<path d="M2832 2750 c2 -8 15 -15 28 -15 13 0 26 7 28 15 5 13 3 13 -11 1 -14
-11 -20 -11 -34 0 -14 12 -16 12 -11 -1z"/>
<path d="M3010 2581 c0 -6 5 -11 12 -11 6 0 52 -19 102 -42 76 -35 104 -42
170 -46 101 -6 96 12 -6 22 -54 5 -92 16 -143 41 -79 39 -135 54 -135 36z"/>
<path d="M2885 2271 c-7 -12 40 -44 56 -39 7 2 -1 14 -19 26 -17 13 -33 18
-37 13z"/>
<path d="M2870 2212 c0 -14 56 -63 63 -55 4 3 -5 19 -20 35 -27 28 -43 35 -43
20z"/>
<path d="M2910 2101 c0 -6 15 -21 33 -34 46 -34 55 -38 61 -29 3 5 -14 23 -38
41 -47 33 -56 37 -56 22z"/>
<path d="M2892 2018 c3 -7 12 -14 21 -16 12 -2 15 1 11 12 -7 19 -38 22 -32 4z"/>
<path d="M2876 1952 c-6 -11 9 -25 37 -35 25 -9 18 12 -10 30 -12 8 -24 10
-27 5z"/>
<path d="M2795 1830 c19 -21 45 -27 45 -10 0 11 -33 30 -51 30 -8 0 -5 -7 6
-20z"/>
<path d="M2746 1793 c-10 -10 25 -43 47 -43 16 0 17 2 7 16 -18 20 -46 35 -54
27z"/>
<path d="M2700 1640 c0 -5 7 -10 16 -10 8 0 12 5 9 10 -3 6 -10 10 -16 10 -5
0 -9 -4 -9 -10z"/>
<path d="M2330 1550 c0 -5 7 -10 15 -10 8 0 15 5 15 10 0 6 -7 10 -15 10 -8 0
-15 -4 -15 -10z"/>
<path d="M2657 1473 c-9 -9 12 -33 29 -33 17 0 18 12 2 28 -14 14 -22 15 -31
5z"/>
<path d="M2997 1373 c-4 -6 16 -13 51 -17 31 -4 81 -18 110 -31 62 -29 62 -29
62 -14 0 31 -207 88 -223 62z"/>
<path d="M2620 1320 c0 -5 7 -10 16 -10 8 0 12 5 9 10 -3 6 -10 10 -16 10 -5
0 -9 -4 -9 -10z"/>
<path d="M2675 1301 c-6 -11 40 -46 90 -67 19 -8 75 -24 123 -35 48 -11 95
-22 105 -25 11 -3 17 0 17 9 0 10 -15 18 -42 22 -81 14 -213 56 -250 80 -20
14 -40 21 -43 16z"/>
<path d="M2602 1258 c3 -7 13 -15 22 -16 12 -3 17 1 14 10 -3 7 -13 15 -22 16
-12 3 -17 -1 -14 -10z"/>
<path d="M2670 1222 c0 -13 140 -89 185 -101 49 -13 85 -14 85 -2 0 5 -23 14
-52 20 -59 13 -126 41 -167 71 -30 21 -51 26 -51 12z"/>
<path d="M2580 1183 c0 -5 22 -18 48 -30 26 -12 77 -38 113 -58 71 -38 129
-54 129 -37 0 6 -17 16 -37 23 -21 7 -79 34 -129 61 -85 45 -124 58 -124 41z"/>
</g>
</svg>
