<?xml version="1.0" standalone="no"?>
<!DOCTYPE svg PUBLIC "-//W3C//DTD SVG 20010904//EN"
 "http://www.w3.org/TR/2001/REC-SVG-20010904/DTD/svg10.dtd">
<svg version="1.0" xmlns="http://www.w3.org/2000/svg"
 width="512.000000pt" height="512.000000pt" viewBox="0 0 512.000000 512.000000"
 preserveAspectRatio="xMidYMid meet">
<metadata>
Created by potrace 1.14, written by Peter Selinger 2001-2017
</metadata>
<g transform="translate(0.000000,512.000000) scale(0.100000,-0.100000)"
fill="#000000" stroke="none">
<path d="M1380 4628 l0 -73 98 -1 c83 -1 107 -5 153 -26 89 -42 148 -114 165
-203 6 -34 10 -2740 4 -2925 -16 -508 -275 -845 -680 -884 -30 -3 -56 -5 -57
-6 -2 0 -3 -22 -3 -50 l0 -50 83 6 c332 21 608 146 802 363 16 19 39 43 49 55
35 38 124 181 164 262 74 147 148 399 167 564 3 30 9 69 12 85 3 17 6 606 7
1310 l1 1280 24 49 c32 64 90 122 149 148 36 15 71 20 148 22 l101 1 0 73 -1
72 -693 0 -693 0 0 -72z"/>
<path d="M3926 2882 c-2 -4 -5 -63 -6 -132 -3 -198 -16 -270 -72 -390 -125
-265 -394 -446 -675 -453 -33 -1 -33 -1 -33 -54 l0 -53 463 0 462 0 0 543 0
542 -67 2 c-38 0 -70 -2 -72 -5z"/>
</g>
</svg>
